<svg width="144" height="144" viewBox="0 0 144 144" fill="none" xmlns="http://www.w3.org/2000/svg">
<g clip-path="url(#clip0_2_36)">
<rect width="144" height="144" fill="#FF44CB"/>
<g clip-path="url(#clip1_2_36)">
<path fill-rule="evenodd" clip-rule="evenodd" d="M59.1951 74.9487L63.1311 75.6207C63.1791 75.6303 63.2175 75.6879 63.1983 75.7455C63.0159 76.7055 61.3071 84.5487 54.0015 84.5295C52.4943 84.5199 51.2271 84.1455 50.1807 83.5311C48.8463 84.1743 47.3103 84.6063 45.5823 84.5295C43.2591 84.4335 41.6463 83.0799 40.6767 81.3999C39.8031 79.8927 39.3903 78.0303 39.1887 76.2543C39.1887 76.2063 39.1215 76.1871 39.1023 76.2351L35.0319 84.4623C35.0127 84.4911 34.9647 84.5199 34.9263 84.5103L30.7599 83.7999C30.7215 83.7903 30.6831 83.7615 30.6831 83.7135L30.4719 80.3919C30.4623 80.3439 30.3951 80.3247 30.3759 80.3727C29.7039 81.7743 27.7071 84.5199 24.1647 84.5199C19.2495 84.5199 17.6463 79.7583 17.2527 77.6367C16.9071 75.7551 16.8399 73.3551 16.9551 70.7055C16.9647 70.6575 16.9167 70.6095 16.8687 70.6095C15.2847 70.5807 12.5679 70.3503 10.8783 70.1679C10.8303 70.1583 10.7919 70.1103 10.8015 70.0623C10.8285 69.7965 10.9147 69.0002 11.0046 68.1702C11.1062 67.2314 11.2125 66.2496 11.2431 65.9439C11.2527 65.8863 11.3007 65.8479 11.3487 65.8575C13.0095 66.0399 14.9967 66.2223 17.2431 66.2895C17.3007 66.2895 17.3391 66.2511 17.3487 66.2031C17.7039 63.2175 18.1935 60.2703 18.6351 57.6783C18.6447 57.6303 18.6927 57.5919 18.7407 57.6015C19.3071 57.6975 22.2639 58.2063 22.8207 58.3023C22.8687 58.3119 22.9071 58.3599 22.8975 58.4079C22.8792 58.5162 22.8609 58.6249 22.8425 58.7339C22.445 61.0895 22.019 63.614 21.7071 66.1647C21.6975 66.2223 21.7455 66.2703 21.8031 66.2703C23.5887 66.2031 25.4703 66.0495 27.4383 65.7807C27.4863 65.7807 27.5343 65.8095 27.5439 65.8671L28.1007 69.9567C28.1007 70.0047 28.0623 70.0527 28.0143 70.0623C25.6719 70.3887 22.8687 70.5999 21.3615 70.6191C21.3135 70.6191 21.2751 70.6575 21.2751 70.7055C21.1407 72.7887 21.1887 74.7951 21.4095 76.2639C21.6399 77.7999 22.3023 80.1711 24.2319 80.1711C26.6127 80.1711 30.0591 74.1903 29.6847 63.9471C29.667 63.4528 29.625 62.372 29.5829 61.2888C29.5334 60.0159 29.4838 58.7398 29.4735 58.4079C29.4735 58.3599 29.5023 58.3215 29.5503 58.3119C29.8585 58.2559 31.004 58.0624 32.0246 57.8901C32.7525 57.7672 33.4169 57.655 33.6687 57.6111C33.7263 57.6015 33.7839 57.6399 33.7839 57.6975L34.5711 75.4671C34.5711 75.5151 34.6383 75.5343 34.6575 75.4863L39.6207 65.8095C39.6303 65.7711 39.6783 65.7519 39.7167 65.7615C40.2255 65.8479 43.3551 66.3855 43.9407 66.4911C43.9887 66.5007 44.0271 66.5583 44.0175 66.6063C43.6143 68.7951 43.1535 72.6735 43.4799 75.5631C43.8255 78.6735 44.6127 80.2191 45.8799 80.2191C46.5135 80.2191 46.8591 80.0847 47.0031 80.0175C47.0415 79.9983 47.0607 79.9503 47.0415 79.9023C45.9759 77.6175 45.8031 74.9199 46.1583 72.8943C46.5327 70.7631 48.5679 65.3103 53.2047 65.8575C57.9087 66.4143 57.8511 71.5119 57.5823 73.3647C57.1119 76.5615 54.6927 79.6335 54.2991 80.1231C54.2703 80.1519 54.2895 80.1999 54.3279 80.1999C57.8127 80.5455 58.9359 75.7455 59.0895 75.0255C59.0991 74.9679 59.1471 74.9391 59.1951 74.9487ZM50.8143 77.5983C51.6591 76.7535 52.7343 74.5743 52.9743 73.8255C53.4351 72.3855 53.5791 70.2639 52.6575 70.1487C51.6015 70.0047 50.6127 72.1071 50.3919 73.6719C50.2383 74.7759 50.2767 76.2831 50.7375 77.5791C50.7471 77.6175 50.7855 77.6271 50.8143 77.5983Z" fill="black"/>
<path fill-rule="evenodd" clip-rule="evenodd" d="M129.054 74.9295L133.125 75.6015C133.173 75.6111 133.211 75.6591 133.144 75.7551C132.741 77.9439 130.427 84.5967 125.051 84.5967C121.547 84.5967 119.761 81.3615 119.214 78.8847C118.734 76.6959 118.581 73.9791 118.609 71.1855C118.609 71.1567 118.59 71.1375 118.561 71.1375C117.016 71.1375 115.518 71.0895 114.088 71.0223C114.049 71.0223 114.03 71.0703 114.049 71.0991C116.229 73.9215 116.699 77.5695 116.353 79.4511C115.998 81.4287 114.405 84.6063 111.304 84.6063C107.829 84.6063 106.014 81.8991 105.496 81.0255C105.477 80.9967 105.429 80.9967 105.409 81.0351C105.141 81.6495 103.797 84.6159 100.321 84.6159C95.0607 84.6159 94.3311 78.5679 94.1775 76.6191C94.1679 76.5711 94.1007 76.5519 94.0815 76.5999L90.1935 84.5487C90.1743 84.5871 90.1263 84.6063 90.0879 84.5967L85.9599 83.8863C85.9119 83.8767 85.8831 83.8383 85.8831 83.7903L85.8735 81.0831C85.8735 81.0351 85.8159 81.0159 85.7871 81.0543C83.8383 83.5983 80.8719 84.6255 78.5679 84.5967C76.1199 84.5583 73.7967 83.1951 71.7807 81.2559C71.7519 81.2271 71.7039 81.2463 71.7039 81.2847L71.4543 84.4911C71.4447 84.5487 71.3967 84.5871 71.3391 84.5775L67.2111 83.8767C67.1631 83.8671 67.1343 83.8191 67.1343 83.7711C67.1788 83.147 67.4879 79.3834 67.6521 77.3843C67.7 76.8003 67.7356 76.3669 67.7487 76.2063C67.7487 76.1583 67.7391 76.1199 67.7103 76.0815C66.4431 74.2767 64.1103 70.1871 63.1503 68.1903C63.1311 68.1519 63.1503 68.1039 63.1887 68.0751C63.6495 67.7871 66.2127 66.1551 66.6639 65.8671C66.7023 65.8479 66.7599 65.8479 66.7887 65.8863C67.2879 66.4527 67.9023 67.1439 68.3823 67.5759C68.4111 67.6047 68.4591 67.5855 68.4591 67.5471L69.2655 57.7359C69.2751 57.6783 69.3231 57.6399 69.3807 57.6495L73.4415 58.3311C73.4895 58.3407 73.5183 58.3887 73.5183 58.4367L72.6543 69.3711C72.6543 69.3903 72.6735 69.4191 72.6927 69.4191C77.2623 70.3215 79.1151 67.3551 79.7103 64.8207C79.7295 64.7631 79.7775 64.7343 79.8255 64.7439L83.8863 65.5023C83.9439 65.5119 83.9727 65.5599 83.9631 65.6175C82.9839 69.5535 81.1695 71.2527 79.4703 72.4431C77.1471 74.0751 73.4895 74.1615 71.1375 73.4799C71.0991 73.4607 71.0703 73.5087 71.0895 73.5471C72.4815 75.6591 75.7167 80.2863 79.1439 80.2191C84.6428 80.1065 85.4362 70.0049 85.7381 66.161C85.7451 66.0724 85.7518 65.9872 85.7583 65.9055C85.7679 65.8479 85.8159 65.8095 85.8735 65.8191L90.0687 66.5199C90.1167 66.5295 90.1455 66.5679 90.1455 66.6159V69.1311L90.1743 74.5743C90.1743 74.6223 90.2511 74.6415 90.2703 74.5935L94.5903 65.8575C94.6095 65.8287 94.6575 65.7999 94.6959 65.8095L98.8335 66.5007C98.8815 66.5007 98.9103 66.5487 98.9103 66.5967C98.9 66.7423 98.8838 66.9562 98.8635 67.2234C98.7142 69.1939 98.3453 74.0639 98.4975 75.8223L98.5053 75.9111C98.6495 77.5508 98.8798 80.1711 100.369 80.1711C101.531 80.1711 102.097 77.8479 102.366 76.3983C102.942 73.3551 103.365 66.7599 103.413 65.9055C103.413 65.8575 103.461 65.8287 103.509 65.8287C107.07 66.1935 114.366 66.8559 118.801 66.7887C118.821 66.7887 118.84 66.7695 118.84 66.7503C119.07 63.4287 119.473 60.1839 119.867 57.7167C119.877 57.6591 119.925 57.6303 119.973 57.6399C120.379 57.7112 122.122 58.0052 123.222 58.1909C123.603 58.2551 123.907 58.3064 124.053 58.3311C124.101 58.3407 124.139 58.3887 124.129 58.4367C123.774 60.6831 123.409 63.5727 123.189 66.5871C123.189 66.6159 123.208 66.6351 123.237 66.6351C125.512 66.4815 127.854 66.2895 130.216 65.8095C130.273 65.7999 130.321 65.8383 130.331 65.8863L131.157 69.9279C131.166 69.9855 131.128 70.0335 131.08 70.0431C128.353 70.5903 125.646 70.8207 123.025 70.9743C122.997 70.9743 122.977 70.9935 122.977 71.0223C122.939 73.6911 123.073 76.1199 123.477 77.9151C123.669 78.7791 124.177 80.1903 125.08 80.1903C127.317 80.1903 128.67 76.4463 128.939 75.0063C128.949 74.9583 129.006 74.9199 129.054 74.9295ZM108.27 76.9167C108.731 78.2607 110.008 80.6991 111.429 80.1999C112.705 79.7487 112.081 76.3215 111.419 74.9391C110.613 73.2975 109.269 71.8191 107.589 70.8591C107.55 70.8399 107.512 70.8591 107.512 70.8975C107.521 72.9615 107.646 75.1023 108.27 76.9167Z" fill="black"/>
</g>
</g>
<defs>
<clipPath id="clip0_2_36">
<rect width="144" height="144" fill="white"/>
</clipPath>
<clipPath id="clip1_2_36">
<rect width="122.4" height="27.072" fill="white" transform="translate(10.8 57.6)"/>
</clipPath>
</defs>
</svg>
